<svg width="219" height="84" viewBox="0 0 219 84" fill="none" xmlns="http://www.w3.org/2000/svg">
<g clip-path="url(#clip0_2_450)">
<path d="M95.7727 20.285H104.153C105.99 20.2485 107.81 20.6447 109.465 21.4418C110.944 22.1578 112.187 23.2822 113.046 24.682C113.886 26.1753 114.327 27.8595 114.327 29.5724C114.327 31.2854 113.886 32.9696 113.046 34.4628C112.189 35.8676 110.946 36.9968 109.465 37.7164C107.81 38.5135 105.99 38.9097 104.153 38.8732H95.7727V20.285ZM103.943 35.3529C105.786 35.3529 107.257 34.834 108.358 33.7961C109.455 32.7627 110.005 31.3559 110.005 29.5858C110.005 27.8156 109.455 26.4122 108.358 25.3754C107.261 24.3387 105.787 23.8186 103.943 23.8186H100.041V35.3496L103.943 35.3529Z" fill="white"/>
<path d="M119.716 38.1565C118.563 37.5588 117.6 36.6514 116.935 35.5363C116.279 34.3776 115.934 33.069 115.934 31.7377C115.934 30.4064 116.279 29.0977 116.935 27.9391C117.599 26.8242 118.563 25.9177 119.716 25.3222C120.962 24.7021 122.335 24.3794 123.728 24.3794C125.12 24.3794 126.493 24.7021 127.739 25.3222C128.887 25.9209 129.845 26.827 130.507 27.9391C131.163 29.0977 131.507 30.4064 131.507 31.7377C131.507 33.069 131.163 34.3776 130.507 35.5363C129.844 36.6488 128.886 37.5558 127.739 38.1565C126.493 38.7766 125.12 39.0993 123.728 39.0993C122.335 39.0993 120.962 38.7766 119.716 38.1565ZM126.322 34.6196C126.978 33.8023 127.336 32.7857 127.336 31.7377C127.336 30.6897 126.978 29.6731 126.322 28.8558C125.991 28.5025 125.588 28.2237 125.141 28.0381C124.693 27.8524 124.212 27.7641 123.728 27.779C123.241 27.7648 122.758 27.8533 122.309 28.0389C121.859 28.2244 121.454 28.5028 121.12 28.8558C120.454 29.6686 120.09 30.6869 120.09 31.7377C120.09 32.7885 120.454 33.8068 121.12 34.6196C121.454 34.9732 121.859 35.2521 122.308 35.4377C122.758 35.6233 123.241 35.7115 123.728 35.6963C124.212 35.7121 124.694 35.6242 125.141 35.4385C125.589 35.2528 125.991 34.9736 126.322 34.6196Z" fill="white"/>
<path d="M148.268 24.5918V38.8863H144.369V37.1861C143.833 37.7986 143.166 38.2838 142.419 38.6062C141.644 38.9376 140.81 39.1055 139.968 39.0996C138.105 39.0996 136.628 38.5585 135.539 37.4762C134.45 36.3938 133.905 34.7959 133.905 32.6824V24.5918H138.017V32.0557C138.017 34.3581 138.974 35.5093 140.888 35.5093C141.33 35.528 141.771 35.4513 142.18 35.2845C142.59 35.1177 142.959 34.8647 143.262 34.5426C143.859 33.8959 144.156 32.9325 144.156 31.659V24.5918H148.268Z" fill="white"/>
<path d="M163.804 25.2952C164.877 25.898 165.757 26.7912 166.345 27.8721C166.952 29.0701 167.269 30.3943 167.269 31.7374C167.269 33.0805 166.952 34.4047 166.345 35.6027C165.757 36.6838 164.876 37.5779 163.804 38.1829C162.706 38.798 161.465 39.1141 160.206 39.0996C158.256 39.0996 156.771 38.4796 155.751 37.2395V38.8863H151.826V19.1714H155.937V26.1053C156.973 24.9563 158.396 24.3807 160.206 24.3785C161.465 24.3624 162.706 24.6786 163.804 25.2952ZM162.09 34.6293C162.746 33.812 163.104 32.7954 163.104 31.7474C163.104 30.6994 162.746 29.6827 162.09 28.8655C161.749 28.5243 161.345 28.2536 160.899 28.0689C160.454 27.8842 159.976 27.7892 159.494 27.7892C159.012 27.7892 158.534 27.8842 158.089 28.0689C157.643 28.2536 157.239 28.5243 156.898 28.8655C156.242 29.6827 155.884 30.6994 155.884 31.7474C155.884 32.7954 156.242 33.812 156.898 34.6293C157.239 34.9705 157.643 35.2412 158.089 35.4258C158.534 35.6105 159.012 35.7056 159.494 35.7056C159.976 35.7056 160.454 35.6105 160.899 35.4258C161.345 35.2412 161.749 34.9705 162.09 34.6293Z" fill="white"/>
<path d="M169.746 19.1714H173.855V38.8863H169.746V19.1714Z" fill="white"/>
<path d="M191.222 32.9058H180.498C180.667 33.756 181.158 34.5082 181.868 35.006C182.66 35.5409 183.601 35.8106 184.556 35.776C185.225 35.7865 185.891 35.6735 186.52 35.4427C187.116 35.2022 187.658 34.8452 188.114 34.3926L190.302 36.7828C188.968 38.3229 187.017 39.0941 184.449 39.0963C182.98 39.1243 181.526 38.8008 180.207 38.1529C179.028 37.5687 178.04 36.6596 177.36 35.5327C176.683 34.3831 176.337 33.0692 176.359 31.7357C176.345 30.4063 176.69 29.0977 177.36 27.9487C178.003 26.8376 178.943 25.927 180.074 25.3185C181.248 24.7097 182.55 24.3888 183.873 24.3824C185.195 24.376 186.501 24.6843 187.68 25.2819C188.793 25.8738 189.712 26.7729 190.328 27.8721C190.99 29.0708 191.323 30.4235 191.292 31.7924C191.302 31.8457 191.275 32.2157 191.222 32.9058ZM181.605 28.3088C180.959 28.8648 180.545 29.6427 180.444 30.4889H187.427C187.327 29.6468 186.914 28.8731 186.269 28.3215C185.625 27.77 184.797 27.481 183.949 27.512C183.097 27.4852 182.264 27.7683 181.605 28.3088Z" fill="white"/>
<path d="M218.997 20.2852L211.023 38.8866H206.798L198.838 20.2852H203.45L209.063 33.5729L214.755 20.2852H218.997Z" fill="white"/>
<path d="M108.678 45.6635C110.121 46.8902 110.842 48.5737 110.842 50.7139C110.842 52.8541 110.121 54.5331 108.678 55.7509C107.237 56.9666 105.245 57.5744 102.702 57.5744H97.3667V63.9082H95.2425V43.8267H102.702C105.243 43.8267 107.235 44.4389 108.678 45.6635ZM107.171 54.4042C108.216 53.533 108.737 52.3029 108.735 50.7139C108.735 49.0915 108.213 47.8436 107.171 46.9702C106.128 46.0968 104.62 45.6613 102.646 45.6635H97.35V55.7076H102.646C104.62 55.7076 106.128 55.2731 107.171 54.4042Z" fill="#3BB3FF"/>
<path d="M124.278 50.1841C125.323 51.1709 125.844 52.6299 125.842 54.5611V63.9185H123.908V61.565C123.438 62.362 122.741 63.0014 121.907 63.4018C120.925 63.8658 119.848 64.0941 118.762 64.0686C117.093 64.0686 115.764 63.6663 114.777 62.8618C114.322 62.4778 113.954 62.0008 113.699 61.4627C113.443 60.9246 113.306 60.3381 113.297 59.7426C113.287 59.1471 113.405 58.5565 113.644 58.0106C113.882 57.4647 114.234 56.9762 114.677 56.5779C115.598 55.7912 117.064 55.399 119.076 55.4012H123.821V54.4811C123.821 53.181 123.461 52.1909 122.74 51.5109C122.017 50.8442 120.966 50.4941 119.579 50.4941C118.648 50.4908 117.724 50.651 116.848 50.9675C116.022 51.2538 115.259 51.6963 114.6 52.2709L113.687 50.7508C114.491 50.0753 115.42 49.5635 116.421 49.244C117.505 48.8873 118.639 48.7084 119.779 48.714C121.733 48.7096 123.233 49.1996 124.278 50.1841ZM121.987 61.665C122.821 61.1161 123.458 60.3164 123.808 59.3815V56.9146H119.126C116.565 56.9146 115.283 57.8136 115.281 59.6115C115.266 60.0134 115.349 60.4128 115.524 60.7752C115.698 61.1376 115.958 61.4522 116.281 61.6917C116.948 62.2006 117.878 62.4551 119.072 62.4551C120.1 62.4803 121.113 62.2058 121.987 61.665Z" fill="#3BB3FF"/>
<path d="M135.109 49.4807C136.186 48.9322 137.385 48.6661 138.594 48.7073V50.6841L138.11 50.6541C136.536 50.6541 135.302 51.1419 134.409 52.1175C133.515 53.0932 133.07 54.4611 133.075 56.2212V63.9185H131.054V48.8206H132.991V51.7775C133.429 50.8022 134.172 49.9959 135.109 49.4807Z" fill="#3BB3FF"/>
<path d="M150.492 62.9986C150.083 63.3584 149.602 63.6276 149.081 63.7886C148.516 63.9709 147.925 64.0632 147.331 64.062C145.926 64.062 144.844 63.6786 144.086 62.9119C143.328 62.1451 142.949 61.0695 142.949 59.685V50.5442H140.281V48.8208H142.949V45.5205H144.97V48.8208H149.525V50.5442H144.97V59.545C144.97 60.4339 145.192 61.1184 145.637 61.5984C145.89 61.8432 146.192 62.0322 146.522 62.1534C146.853 62.2745 147.206 62.3251 147.557 62.3018C147.969 62.3015 148.378 62.2328 148.768 62.0985C149.135 61.9738 149.475 61.7791 149.768 61.5251L150.492 62.9986Z" fill="#3BB3FF"/>
<path d="M166.005 50.3507C167.116 51.4619 167.672 53.0643 167.672 55.1578V63.9185H165.651V55.3511C165.651 53.7954 165.262 52.5998 164.484 51.7642C163.704 50.9408 162.597 50.5307 161.15 50.5307C159.536 50.5307 158.259 51.0141 157.321 51.9809C156.383 52.9476 155.914 54.281 155.914 55.9812V63.9185H153.893V48.8206H155.827V51.6042C156.374 50.6901 157.168 49.9492 158.118 49.4673C159.174 48.9426 160.341 48.6818 161.52 48.7073C163.398 48.7073 164.893 49.2551 166.005 50.3507Z" fill="#3BB3FF"/>
<path d="M185.956 57.018H173.431C173.462 57.7394 173.637 58.4474 173.945 59.1005C174.253 59.7536 174.688 60.3387 175.225 60.8217C176.359 61.8045 177.824 62.3215 179.324 62.2684C180.204 62.2783 181.076 62.1081 181.888 61.7684C182.664 61.4324 183.355 60.9266 183.909 60.2883L185.046 61.6217C184.379 62.4285 183.523 63.0593 182.555 63.4585C181.372 63.9307 180.102 64.1432 178.83 64.0817C177.558 64.0201 176.314 63.686 175.182 63.1018C174.019 62.4642 173.058 61.5138 172.408 60.3583C171.731 59.1492 171.386 57.7831 171.407 56.398C171.386 55.0186 171.714 53.6562 172.361 52.4377C172.966 51.3048 173.873 50.362 174.982 49.7141C176.117 49.0553 177.411 48.7176 178.723 48.7374C180.03 48.7064 181.321 49.0339 182.455 49.6841C183.552 50.331 184.449 51.2691 185.046 52.3943C185.689 53.6186 186.013 54.9854 185.986 56.368L185.956 57.018ZM175.099 51.8509C174.106 52.8086 173.511 54.1047 173.431 55.4812H184.049C183.97 54.1046 183.374 52.8084 182.382 51.8509C181.38 50.9539 180.083 50.4578 178.738 50.4578C177.394 50.4578 176.097 50.9539 175.095 51.8509H175.099Z" fill="#3BB3FF"/>
<path d="M193.883 49.4807C194.962 48.9322 196.162 48.6661 197.371 48.7073V50.6841L196.888 50.6541C195.31 50.6541 194.08 51.1441 193.186 52.1175C192.292 53.0909 191.852 54.4511 191.852 56.2212V63.9185H189.831V48.8206H191.765V51.7775C192.205 50.8035 192.948 49.9978 193.883 49.4807Z" fill="#3BB3FF"/>
<path d="M201.369 63.5282C200.422 63.2601 199.536 62.8069 198.765 62.1948L199.675 60.588C200.386 61.1293 201.187 61.5422 202.04 61.8081C202.993 62.1252 203.992 62.285 204.998 62.2814C206.365 62.2814 207.375 62.0659 208.029 61.6347C208.342 61.4476 208.6 61.1803 208.776 60.8604C208.952 60.5405 209.039 60.1795 209.029 59.8146C209.042 59.5703 209 59.3263 208.907 59.1003C208.813 58.8742 208.67 58.6718 208.489 58.5078C208.092 58.1711 207.625 57.9264 207.122 57.7911C206.401 57.5909 205.67 57.4329 204.931 57.3177C203.941 57.1415 202.962 56.9066 202 56.6143C201.271 56.3826 200.618 55.9616 200.106 55.3942C199.551 54.7283 199.27 53.8759 199.322 53.0107C199.313 52.4058 199.451 51.8078 199.724 51.2679C199.997 50.7279 200.397 50.2622 200.889 49.9105C201.934 49.1082 203.386 48.707 205.244 48.707C206.224 48.7093 207.199 48.8392 208.146 49.0937C208.994 49.2988 209.802 49.6436 210.536 50.1138L209.656 51.7473C208.356 50.8672 206.814 50.4161 205.244 50.4572C203.955 50.4572 202.982 50.6872 202.326 51.1472C202.018 51.337 201.764 51.6029 201.589 51.9194C201.414 52.2359 201.323 52.5923 201.326 52.954C201.315 53.21 201.359 53.4654 201.455 53.7029C201.551 53.9404 201.697 54.1545 201.883 54.3308C202.277 54.6891 202.75 54.9495 203.264 55.0909C204.013 55.2987 204.774 55.4668 205.541 55.5942C206.512 55.77 207.471 56.0004 208.416 56.2843C209.126 56.5046 209.763 56.9109 210.263 57.4611C210.806 58.0978 211.082 58.9194 211.033 59.7546C211.048 60.3742 210.906 60.9875 210.62 61.5372C210.334 62.087 209.912 62.5552 209.396 62.8982C208.307 63.6716 206.794 64.0594 204.858 64.0616C203.674 64.0669 202.497 63.8869 201.369 63.5282Z" fill="#3BB3FF"/>
<path d="M43.3278 61.3514C43.3178 62.0116 43.1778 62.6633 42.9158 63.2694C42.6538 63.8755 42.275 64.4241 41.8009 64.8838C41.3268 65.3435 40.7667 65.7053 40.1527 65.9486C39.5387 66.1919 38.8828 66.3119 38.2224 66.3018C35.4045 66.3018 33.2903 64.2583 33.2903 61.5247C33.2903 58.7912 35.4045 56.401 38.2224 56.401C38.8828 56.3908 39.5387 56.5108 40.1527 56.7541C40.7667 56.9974 41.3268 57.3593 41.8009 57.819C42.275 58.2787 42.6538 58.8272 42.9158 59.4333C43.1778 60.0394 43.3178 60.6912 43.3278 61.3514Z" fill="#3BB3FF"/>
<path d="M6.97618 22.9485C6.97618 24.772 5.28216 26.0754 3.40139 26.0754C2.95924 26.0895 2.51877 26.0145 2.10616 25.8551C1.69354 25.6957 1.31719 25.4549 0.999452 25.1473C0.681717 24.8396 0.429082 24.4712 0.256552 24.064C0.0840216 23.6568 -0.00488281 23.219 -0.00488281 22.7768C-0.00488281 22.3346 0.0840216 21.8969 0.256552 21.4897C0.429082 21.0825 0.681717 20.7141 0.999452 20.4064C1.31719 20.0987 1.69354 19.858 2.10616 19.6985C2.51877 19.5391 2.95924 19.4642 3.40139 19.4782C5.27216 19.4782 6.97618 21.1284 6.97618 22.9485Z" fill="#3BB3FF"/>
<path d="M73.0467 26.0786C74.9252 26.0786 76.4481 24.601 76.4481 22.7783C76.4481 20.9556 74.9252 19.478 73.0467 19.478C71.1681 19.478 69.6453 20.9556 69.6453 22.7783C69.6453 24.601 71.1681 26.0786 73.0467 26.0786Z" fill="#3BB3FF"/>
<path d="M73.0467 45.2734C74.9252 45.2734 76.4481 43.7958 76.4481 41.9731C76.4481 40.1504 74.9252 38.6729 73.0467 38.6729C71.1681 38.6729 69.6453 40.1504 69.6453 41.9731C69.6453 43.7958 71.1681 45.2734 73.0467 45.2734Z" fill="#3BB3FF"/>
<path d="M38.3958 48.7474C42.1547 48.7474 45.2019 45.7923 45.2019 42.1469C45.2019 38.5015 42.1547 35.5464 38.3958 35.5464C34.6369 35.5464 31.5897 38.5015 31.5897 42.1469C31.5897 45.7923 34.6369 48.7474 38.3958 48.7474Z" fill="#3BB3FF"/>
<path d="M6.80611 41.9733C6.79206 42.8621 6.42554 43.7091 5.7871 44.3279C5.14867 44.9468 4.29056 45.2869 3.40138 45.2735C1.52394 45.2735 0.170044 43.9668 0.170044 42.1466C0.170044 40.3265 1.52394 38.683 3.40138 38.683C4.28886 38.6696 5.14547 39.0084 5.78362 39.6251C6.42177 40.2417 6.78945 41.0861 6.80611 41.9733Z" fill="#3BB3FF"/>
<path d="M60.7383 51.4572C60.7383 54.1908 58.6241 56.5776 55.8063 56.5776C52.9884 56.5776 50.5308 54.1908 50.5308 51.4572C50.5648 50.1266 51.1174 48.862 52.0709 47.9329C53.0243 47.0039 54.3031 46.4839 55.6345 46.4839C56.966 46.4839 58.2448 47.0039 59.1982 47.9329C60.1516 48.862 60.7043 50.1266 60.7383 51.4572Z" fill="#3BB3FF"/>
<path d="M60.7383 32.1894C60.7283 32.85 60.5881 33.5021 60.3256 34.1085C60.0632 34.7148 59.6836 35.2635 59.2088 35.723C58.7339 36.1825 58.1731 36.5439 57.5583 36.7864C56.9436 37.029 56.287 37.1479 55.6262 37.1364C52.8084 37.1364 50.6942 35.0929 50.6942 32.3594C50.6942 29.6258 52.8084 27.239 55.6262 27.239C56.2871 27.228 56.9438 27.3473 57.5586 27.5902C58.1733 27.8331 58.7342 28.1948 59.209 28.6546C59.6838 29.1144 60.0633 29.6632 60.3257 30.2698C60.5881 30.8763 60.7283 31.5286 60.7383 32.1894Z" fill="#3BB3FF"/>
<path d="M25.9173 51.4572C25.8833 52.7878 25.3306 54.0525 24.3772 54.9815C23.4238 55.9106 22.145 56.4305 20.8136 56.4305C19.4821 56.4305 18.2033 55.9106 17.2499 54.9815C16.2965 54.0525 15.7438 52.7878 15.7098 51.4572C15.7098 48.7237 18.1675 46.6802 20.9853 46.6802C23.8031 46.6802 25.9173 48.7237 25.9173 51.4572Z" fill="#3BB3FF"/>
<path d="M25.9173 32.1891C25.8833 33.5197 25.3306 34.7843 24.3772 35.7134C23.4238 36.6424 22.145 37.1624 20.8136 37.1624C19.4821 37.1624 18.2033 36.6424 17.2499 35.7134C16.2965 34.7843 15.7438 33.5197 15.7098 32.1891C15.7098 29.4555 18.1675 27.4087 20.9853 27.4087C23.8031 27.4087 25.9173 29.4555 25.9173 32.1891Z" fill="#3BB3FF"/>
<path d="M38.2224 83.9999C40.1009 83.9999 41.6238 82.5224 41.6238 80.6997C41.6238 78.877 40.1009 77.3994 38.2224 77.3994C36.3438 77.3994 34.821 78.877 34.821 80.6997C34.821 82.5224 36.3438 83.9999 38.2224 83.9999Z" fill="white"/>
<path d="M38.2224 6.60052C40.1009 6.60052 41.6238 5.12295 41.6238 3.30026C41.6238 1.47758 40.1009 0 38.2224 0C36.3438 0 34.821 1.47758 34.821 3.30026C34.821 5.12295 36.3438 6.60052 38.2224 6.60052Z" fill="white"/>
<path d="M3.4014 64.725C5.27994 64.725 6.8028 63.2475 6.8028 61.4248C6.8028 59.6021 5.27994 58.1245 3.4014 58.1245C1.52286 58.1245 0 59.6021 0 61.4248C0 63.2475 1.52286 64.725 3.4014 64.725Z" fill="white"/>
<path d="M73.0467 64.725C74.9252 64.725 76.4481 63.2475 76.4481 61.4248C76.4481 59.6021 74.9252 58.1245 73.0467 58.1245C71.1681 58.1245 69.6453 59.6021 69.6453 61.4248C69.6453 63.2475 71.1681 64.725 73.0467 64.725Z" fill="white"/>
<path d="M38.2224 27.5888C41.042 27.5888 43.3278 25.3724 43.3278 22.6384C43.3278 19.9044 41.042 17.688 38.2224 17.688C35.4027 17.688 33.1169 19.9044 33.1169 22.6384C33.1169 25.3724 35.4027 27.5888 38.2224 27.5888Z" fill="white"/>
<path d="M20.8119 74.329C22.6904 74.329 24.2133 72.8515 24.2133 71.0288C24.2133 69.2061 22.6904 67.7285 20.8119 67.7285C18.9333 67.7285 17.4105 69.2061 17.4105 71.0288C17.4105 72.8515 18.9333 74.329 20.8119 74.329Z" fill="white"/>
<path d="M55.6362 74.329C57.5147 74.329 59.0376 72.8515 59.0376 71.0288C59.0376 69.2061 57.5147 67.7285 55.6362 67.7285C53.7577 67.7285 52.2348 69.2061 52.2348 71.0288C52.2348 72.8515 53.7577 74.329 55.6362 74.329Z" fill="white"/>
<path d="M20.8119 16.2211C22.6904 16.2211 24.2133 14.7436 24.2133 12.9209C24.2133 11.0982 22.6904 9.62061 20.8119 9.62061C18.9333 9.62061 17.4105 11.0982 17.4105 12.9209C17.4105 14.7436 18.9333 16.2211 20.8119 16.2211Z" fill="white"/>
<path d="M55.6362 16.2211C57.5147 16.2211 59.0376 14.7436 59.0376 12.9209C59.0376 11.0982 57.5147 9.62061 55.6362 9.62061C53.7577 9.62061 52.2348 11.0982 52.2348 12.9209C52.2348 14.7436 53.7577 16.2211 55.6362 16.2211Z" fill="white"/>
</g>
<defs>
<clipPath id="clip0_2_450">
<rect width="219" height="84" fill="white"/>
</clipPath>
</defs>
</svg>
